G04 EAGLE Gerber RS-274X export*
G75*
%MOMM*%
%FSLAX34Y34*%
%LPD*%
%IN*%
%IPPOS*%
%AMOC8*
5,1,8,0,0,1.08239X$1,22.5*%
G01*
%ADD10C,0.254000*%


D10*
X0Y0D02*
X1600000Y0D01*
X1600000Y1000000D01*
X0Y1000000D01*
X0Y0D01*
X1067700Y949464D02*
X1067624Y948396D01*
X1067471Y947335D01*
X1067243Y946288D01*
X1066941Y945260D01*
X1066567Y944256D01*
X1066122Y943281D01*
X1065608Y942341D01*
X1065029Y941440D01*
X1064387Y940582D01*
X1063685Y939772D01*
X1062928Y939015D01*
X1062118Y938313D01*
X1061260Y937671D01*
X1060359Y937092D01*
X1059419Y936578D01*
X1058444Y936133D01*
X1057440Y935759D01*
X1056412Y935457D01*
X1055365Y935229D01*
X1054304Y935076D01*
X1053236Y935000D01*
X1052164Y935000D01*
X1051096Y935076D01*
X1050035Y935229D01*
X1048988Y935457D01*
X1047960Y935759D01*
X1046956Y936133D01*
X1045981Y936578D01*
X1045041Y937092D01*
X1044140Y937671D01*
X1043282Y938313D01*
X1042472Y939015D01*
X1041715Y939772D01*
X1041013Y940582D01*
X1040371Y941440D01*
X1039792Y942341D01*
X1039278Y943281D01*
X1038833Y944256D01*
X1038459Y945260D01*
X1038157Y946288D01*
X1037929Y947335D01*
X1037776Y948396D01*
X1037700Y949464D01*
X1037700Y950536D01*
X1037776Y951604D01*
X1037929Y952665D01*
X1038157Y953712D01*
X1038459Y954740D01*
X1038833Y955744D01*
X1039278Y956719D01*
X1039792Y957659D01*
X1040371Y958560D01*
X1041013Y959418D01*
X1041715Y960228D01*
X1042472Y960985D01*
X1043282Y961687D01*
X1044140Y962329D01*
X1045041Y962908D01*
X1045981Y963422D01*
X1046956Y963867D01*
X1047960Y964241D01*
X1048988Y964543D01*
X1050035Y964771D01*
X1051096Y964924D01*
X1052164Y965000D01*
X1053236Y965000D01*
X1054304Y964924D01*
X1055365Y964771D01*
X1056412Y964543D01*
X1057440Y964241D01*
X1058444Y963867D01*
X1059419Y963422D01*
X1060359Y962908D01*
X1061260Y962329D01*
X1062118Y961687D01*
X1062928Y960985D01*
X1063685Y960228D01*
X1064387Y959418D01*
X1065029Y958560D01*
X1065608Y957659D01*
X1066122Y956719D01*
X1066567Y955744D01*
X1066941Y954740D01*
X1067243Y953712D01*
X1067471Y952665D01*
X1067624Y951604D01*
X1067700Y950536D01*
X1067700Y949464D01*
X511700Y949464D02*
X511624Y948396D01*
X511471Y947335D01*
X511243Y946288D01*
X510941Y945260D01*
X510567Y944256D01*
X510122Y943281D01*
X509608Y942341D01*
X509029Y941440D01*
X508387Y940582D01*
X507685Y939772D01*
X506928Y939015D01*
X506118Y938313D01*
X505260Y937671D01*
X504359Y937092D01*
X503419Y936578D01*
X502444Y936133D01*
X501440Y935759D01*
X500412Y935457D01*
X499365Y935229D01*
X498304Y935076D01*
X497236Y935000D01*
X496164Y935000D01*
X495096Y935076D01*
X494035Y935229D01*
X492988Y935457D01*
X491960Y935759D01*
X490956Y936133D01*
X489981Y936578D01*
X489041Y937092D01*
X488140Y937671D01*
X487282Y938313D01*
X486472Y939015D01*
X485715Y939772D01*
X485013Y940582D01*
X484371Y941440D01*
X483792Y942341D01*
X483278Y943281D01*
X482833Y944256D01*
X482459Y945260D01*
X482157Y946288D01*
X481929Y947335D01*
X481776Y948396D01*
X481700Y949464D01*
X481700Y950536D01*
X481776Y951604D01*
X481929Y952665D01*
X482157Y953712D01*
X482459Y954740D01*
X482833Y955744D01*
X483278Y956719D01*
X483792Y957659D01*
X484371Y958560D01*
X485013Y959418D01*
X485715Y960228D01*
X486472Y960985D01*
X487282Y961687D01*
X488140Y962329D01*
X489041Y962908D01*
X489981Y963422D01*
X490956Y963867D01*
X491960Y964241D01*
X492988Y964543D01*
X494035Y964771D01*
X495096Y964924D01*
X496164Y965000D01*
X497236Y965000D01*
X498304Y964924D01*
X499365Y964771D01*
X500412Y964543D01*
X501440Y964241D01*
X502444Y963867D01*
X503419Y963422D01*
X504359Y962908D01*
X505260Y962329D01*
X506118Y961687D01*
X506928Y960985D01*
X507685Y960228D01*
X508387Y959418D01*
X509029Y958560D01*
X509608Y957659D01*
X510122Y956719D01*
X510567Y955744D01*
X510941Y954740D01*
X511243Y953712D01*
X511471Y952665D01*
X511624Y951604D01*
X511700Y950536D01*
X511700Y949464D01*
M02*
