G04 EAGLE Gerber RS-274X export*
G75*
%MOMM*%
%FSLAX34Y34*%
%LPD*%
%INSoldermask Bottom*%
%IPPOS*%
%AMOC8*
5,1,8,0,0,1.08239X$1,22.5*%
G01*
%ADD10R,2.303200X2.303200*%
%ADD11C,3.203200*%
%ADD12C,1.727200*%
%ADD13C,1.611200*%
%ADD14C,2.743200*%
%ADD15C,1.524000*%
%ADD16R,2.006200X1.803200*%
%ADD17C,2.453200*%
%ADD18R,1.803200X2.006200*%
%ADD19C,2.743200*%
%ADD20P,2.969212X8X292.500000*%
%ADD21P,2.969212X8X22.500000*%
%ADD22C,1.993900*%
%ADD23C,2.451100*%
%ADD24P,2.969212X8X202.500000*%
%ADD25R,0.812400X1.383300*%
%ADD26R,1.383300X0.812400*%
%ADD27R,3.815000X2.265000*%
%ADD28R,2.265000X3.815000*%
%ADD29R,2.003200X1.803200*%
%ADD30R,1.803200X2.003200*%
%ADD31P,1.649562X8X202.500000*%
%ADD32C,1.524000*%
%ADD33C,2.108200*%
%ADD34P,2.281895X8X292.500000*%
%ADD35P,1.869504X8X292.500000*%
%ADD36C,3.653200*%
%ADD37P,2.281895X8X22.500000*%
%ADD38P,1.649562X8X292.500000*%
%ADD39R,1.853200X1.853200*%
%ADD40C,1.853200*%
%ADD41C,1.109600*%
%ADD42C,0.959600*%
%ADD43C,1.703200*%
%ADD44C,1.117600*%
%ADD45C,0.990600*%

G36*
X1150115Y38229D02*
X1150115Y38229D01*
X1150118Y38228D01*
X1150201Y38265D01*
X1156551Y44615D01*
X1156553Y44618D01*
X1156555Y44619D01*
X1156588Y44704D01*
X1156588Y145542D01*
X1156588Y145543D01*
X1156588Y145544D01*
X1156587Y145546D01*
X1156588Y145548D01*
X1156551Y145631D01*
X1049400Y252782D01*
X1049400Y415036D01*
X1049399Y415039D01*
X1049400Y415042D01*
X1049363Y415125D01*
X872071Y592417D01*
X872068Y592419D01*
X872067Y592421D01*
X871982Y592454D01*
X699060Y592454D01*
X673480Y618034D01*
X673480Y655320D01*
X673479Y655323D01*
X673480Y655326D01*
X673443Y655409D01*
X616801Y712051D01*
X616798Y712053D01*
X616797Y712055D01*
X616712Y712088D01*
X302058Y712088D01*
X281050Y733096D01*
X281050Y765302D01*
X281050Y765304D01*
X281050Y765306D01*
X281050Y765307D01*
X281050Y765308D01*
X281013Y765391D01*
X256629Y789775D01*
X256626Y789777D01*
X256625Y789779D01*
X256540Y789812D01*
X131497Y789812D01*
X90042Y831267D01*
X90042Y956564D01*
X90041Y956567D01*
X90042Y956570D01*
X90005Y956653D01*
X84417Y962241D01*
X84414Y962243D01*
X84413Y962245D01*
X84328Y962278D01*
X69342Y962278D01*
X69339Y962277D01*
X69336Y962278D01*
X69253Y962241D01*
X61887Y954875D01*
X61886Y954872D01*
X61883Y954871D01*
X61850Y954786D01*
X61850Y821182D01*
X61851Y821179D01*
X61850Y821176D01*
X61887Y821093D01*
X121577Y761403D01*
X121580Y761402D01*
X121581Y761399D01*
X121666Y761366D01*
X246836Y761366D01*
X252731Y755471D01*
X252731Y725297D01*
X252732Y725294D01*
X252731Y725291D01*
X252768Y725208D01*
X293281Y684695D01*
X293284Y684694D01*
X293285Y684691D01*
X293370Y684658D01*
X605992Y684658D01*
X647828Y642822D01*
X647828Y606806D01*
X647829Y606803D01*
X647828Y606800D01*
X647865Y606717D01*
X686981Y567601D01*
X686984Y567600D01*
X686985Y567597D01*
X687070Y567564D01*
X854912Y567564D01*
X1022986Y399490D01*
X1022986Y241300D01*
X1022987Y241297D01*
X1022986Y241294D01*
X1023023Y241211D01*
X1129666Y134568D01*
X1129666Y45466D01*
X1129667Y45463D01*
X1129666Y45460D01*
X1129703Y45377D01*
X1136815Y38265D01*
X1136818Y38264D01*
X1136819Y38261D01*
X1136904Y38228D01*
X1150112Y38228D01*
X1150115Y38229D01*
G37*
G36*
X1310389Y36705D02*
X1310389Y36705D01*
X1310392Y36704D01*
X1310475Y36741D01*
X1311454Y37720D01*
X1314450Y37720D01*
X1314453Y37721D01*
X1314456Y37720D01*
X1314539Y37757D01*
X1315264Y38482D01*
X1315974Y38482D01*
X1315977Y38483D01*
X1315980Y38482D01*
X1316063Y38519D01*
X1318095Y40551D01*
X1318097Y40554D01*
X1318099Y40555D01*
X1318132Y40640D01*
X1318132Y41096D01*
X1320635Y43599D01*
X1320637Y43602D01*
X1320639Y43603D01*
X1320672Y43688D01*
X1320672Y44144D01*
X1321651Y45123D01*
X1321653Y45126D01*
X1321655Y45127D01*
X1321688Y45212D01*
X1321688Y46684D01*
X1322667Y47663D01*
X1322669Y47666D01*
X1322671Y47667D01*
X1322704Y47752D01*
X1322704Y50748D01*
X1322921Y50965D01*
X1322923Y50968D01*
X1322925Y50969D01*
X1322958Y51054D01*
X1322958Y179018D01*
X1337399Y193459D01*
X1337401Y193462D01*
X1337403Y193463D01*
X1337436Y193548D01*
X1337436Y194004D01*
X1338161Y194729D01*
X1338163Y194732D01*
X1338165Y194733D01*
X1338198Y194818D01*
X1338198Y195782D01*
X1340066Y197650D01*
X1340068Y197653D01*
X1340070Y197654D01*
X1340103Y197739D01*
X1340103Y591820D01*
X1340102Y591823D01*
X1340103Y591826D01*
X1340066Y591909D01*
X1261326Y670649D01*
X1261323Y670651D01*
X1261322Y670653D01*
X1261237Y670686D01*
X1204393Y670686D01*
X1179448Y695631D01*
X1179448Y746252D01*
X1179447Y746255D01*
X1179448Y746258D01*
X1179411Y746341D01*
X1178940Y746812D01*
X1178940Y748538D01*
X1178939Y748541D01*
X1178940Y748544D01*
X1178903Y748627D01*
X1178686Y748844D01*
X1178686Y749300D01*
X1178685Y749303D01*
X1178686Y749306D01*
X1178649Y749389D01*
X1178178Y749860D01*
X1178178Y750824D01*
X1178177Y750827D01*
X1178178Y750830D01*
X1178141Y750913D01*
X1176908Y752146D01*
X1176908Y752856D01*
X1176907Y752859D01*
X1176908Y752862D01*
X1176871Y752945D01*
X1174622Y755194D01*
X1174622Y755396D01*
X1174621Y755399D01*
X1174622Y755402D01*
X1174585Y755485D01*
X1132458Y797612D01*
X1132458Y844752D01*
X1150926Y863220D01*
X1214374Y863220D01*
X1214377Y863221D01*
X1214380Y863220D01*
X1214463Y863257D01*
X1214680Y863474D01*
X1215644Y863474D01*
X1215647Y863475D01*
X1215650Y863474D01*
X1215733Y863511D01*
X1216204Y863982D01*
X1217168Y863982D01*
X1217171Y863983D01*
X1217174Y863982D01*
X1217257Y864019D01*
X1217474Y864236D01*
X1217930Y864236D01*
X1217933Y864237D01*
X1217936Y864236D01*
X1218019Y864273D01*
X1218236Y864490D01*
X1218692Y864490D01*
X1218695Y864491D01*
X1218698Y864490D01*
X1218781Y864527D01*
X1219252Y864998D01*
X1219454Y864998D01*
X1219457Y864999D01*
X1219460Y864998D01*
X1219543Y865035D01*
X1220014Y865506D01*
X1220470Y865506D01*
X1220473Y865507D01*
X1220476Y865506D01*
X1220559Y865543D01*
X1221030Y866014D01*
X1221486Y866014D01*
X1221489Y866015D01*
X1221492Y866014D01*
X1221575Y866051D01*
X1223062Y867538D01*
X1223264Y867538D01*
X1223267Y867539D01*
X1223270Y867538D01*
X1223353Y867575D01*
X1293420Y937642D01*
X1333754Y937642D01*
X1333757Y937643D01*
X1333760Y937642D01*
X1333843Y937679D01*
X1334060Y937896D01*
X1336294Y937896D01*
X1336297Y937897D01*
X1336300Y937896D01*
X1336383Y937933D01*
X1336600Y938150D01*
X1337818Y938150D01*
X1337821Y938151D01*
X1337824Y938150D01*
X1337907Y938187D01*
X1338378Y938658D01*
X1339088Y938658D01*
X1339091Y938659D01*
X1339094Y938658D01*
X1339177Y938695D01*
X1339648Y939166D01*
X1340358Y939166D01*
X1340361Y939167D01*
X1340364Y939166D01*
X1340447Y939203D01*
X1341680Y940436D01*
X1342136Y940436D01*
X1342139Y940437D01*
X1342142Y940436D01*
X1342225Y940473D01*
X1344765Y943013D01*
X1344767Y943016D01*
X1344769Y943017D01*
X1344802Y943102D01*
X1344802Y943812D01*
X1346797Y945807D01*
X1346799Y945810D01*
X1346801Y945811D01*
X1346834Y945896D01*
X1346834Y950162D01*
X1347305Y950633D01*
X1347307Y950636D01*
X1347309Y950637D01*
X1347342Y950722D01*
X1347342Y957326D01*
X1347341Y957329D01*
X1347342Y957332D01*
X1347305Y957415D01*
X1346580Y958140D01*
X1346580Y959104D01*
X1346579Y959107D01*
X1346580Y959110D01*
X1346543Y959193D01*
X1345818Y959918D01*
X1345818Y960628D01*
X1345817Y960631D01*
X1345818Y960634D01*
X1345781Y960717D01*
X1341463Y965035D01*
X1341460Y965037D01*
X1341459Y965039D01*
X1341374Y965072D01*
X1339394Y965072D01*
X1337907Y966559D01*
X1337904Y966561D01*
X1337903Y966563D01*
X1337818Y966596D01*
X1336346Y966596D01*
X1335621Y967321D01*
X1335618Y967323D01*
X1335617Y967325D01*
X1335532Y967358D01*
X1286002Y967358D01*
X1285999Y967357D01*
X1285996Y967358D01*
X1285913Y967321D01*
X1285696Y967104D01*
X1284478Y967104D01*
X1284475Y967103D01*
X1284472Y967104D01*
X1284389Y967067D01*
X1284172Y966850D01*
X1283208Y966850D01*
X1283205Y966849D01*
X1283202Y966850D01*
X1283119Y966813D01*
X1282648Y966342D01*
X1281938Y966342D01*
X1281935Y966341D01*
X1281932Y966342D01*
X1281849Y966305D01*
X1281378Y965834D01*
X1280668Y965834D01*
X1280665Y965833D01*
X1280662Y965834D01*
X1280579Y965797D01*
X1280362Y965580D01*
X1280160Y965580D01*
X1280157Y965579D01*
X1280154Y965580D01*
X1280071Y965543D01*
X1279346Y964818D01*
X1279144Y964818D01*
X1279141Y964817D01*
X1279138Y964818D01*
X1279055Y964781D01*
X1278330Y964056D01*
X1277874Y964056D01*
X1277871Y964055D01*
X1277868Y964056D01*
X1277785Y964019D01*
X1206702Y892936D01*
X1143254Y892936D01*
X1143251Y892935D01*
X1143248Y892936D01*
X1143165Y892899D01*
X1142694Y892428D01*
X1141222Y892428D01*
X1141219Y892427D01*
X1141216Y892428D01*
X1141133Y892391D01*
X1140662Y891920D01*
X1139698Y891920D01*
X1139695Y891919D01*
X1139692Y891920D01*
X1139609Y891883D01*
X1139138Y891412D01*
X1138428Y891412D01*
X1138425Y891411D01*
X1138422Y891412D01*
X1138339Y891375D01*
X1137614Y890650D01*
X1137158Y890650D01*
X1137155Y890649D01*
X1137152Y890650D01*
X1137069Y890613D01*
X1136090Y889634D01*
X1135380Y889634D01*
X1135377Y889633D01*
X1135374Y889634D01*
X1135291Y889597D01*
X1132332Y886639D01*
X1132204Y886766D01*
X1132204Y903680D01*
X1168489Y939965D01*
X1168491Y939968D01*
X1168493Y939969D01*
X1168526Y940054D01*
X1168526Y942288D01*
X1169759Y943521D01*
X1169761Y943524D01*
X1169763Y943525D01*
X1169796Y943610D01*
X1169796Y951738D01*
X1169795Y951741D01*
X1169796Y951744D01*
X1169759Y951827D01*
X1166240Y955346D01*
X1166240Y957072D01*
X1166239Y957075D01*
X1166240Y957078D01*
X1166203Y957161D01*
X1161885Y961479D01*
X1161882Y961481D01*
X1161881Y961483D01*
X1161796Y961516D01*
X1148588Y961516D01*
X1148585Y961515D01*
X1148582Y961516D01*
X1148499Y961479D01*
X1105065Y918045D01*
X1105064Y918042D01*
X1105061Y918041D01*
X1105028Y917956D01*
X1105028Y916992D01*
X1103795Y915759D01*
X1103794Y915756D01*
X1103791Y915755D01*
X1103758Y915670D01*
X1103758Y913436D01*
X1103033Y912711D01*
X1103032Y912708D01*
X1103029Y912707D01*
X1102996Y912622D01*
X1102996Y788162D01*
X1102997Y788159D01*
X1102996Y788156D01*
X1103033Y788073D01*
X1103504Y787602D01*
X1103504Y786638D01*
X1103505Y786635D01*
X1103504Y786632D01*
X1103541Y786549D01*
X1104520Y785570D01*
X1104520Y784352D01*
X1104521Y784349D01*
X1104520Y784346D01*
X1104557Y784263D01*
X1105536Y783284D01*
X1105536Y782828D01*
X1105537Y782825D01*
X1105536Y782822D01*
X1105573Y782739D01*
X1149986Y738326D01*
X1149986Y683768D01*
X1149987Y683765D01*
X1149986Y683762D01*
X1150023Y683679D01*
X1153288Y680414D01*
X1153288Y679958D01*
X1153289Y679955D01*
X1153288Y679952D01*
X1153325Y679869D01*
X1188631Y644563D01*
X1188634Y644562D01*
X1188635Y644559D01*
X1188720Y644526D01*
X1189430Y644526D01*
X1190663Y643293D01*
X1190666Y643292D01*
X1190667Y643289D01*
X1190752Y643256D01*
X1194002Y643256D01*
X1195997Y641261D01*
X1196000Y641260D01*
X1196001Y641257D01*
X1196086Y641224D01*
X1252295Y641224D01*
X1311276Y582243D01*
X1311276Y209348D01*
X1296073Y194145D01*
X1296072Y194142D01*
X1296069Y194141D01*
X1296036Y194056D01*
X1296036Y191568D01*
X1294041Y189573D01*
X1294040Y189570D01*
X1294037Y189569D01*
X1294004Y189484D01*
X1294004Y185726D01*
X1293279Y185001D01*
X1293278Y184998D01*
X1293275Y184997D01*
X1293242Y184912D01*
X1293242Y48260D01*
X1293243Y48257D01*
X1293242Y48254D01*
X1293279Y48171D01*
X1294004Y47446D01*
X1294004Y45720D01*
X1294005Y45717D01*
X1294004Y45714D01*
X1294041Y45631D01*
X1295528Y44144D01*
X1295528Y42926D01*
X1295529Y42923D01*
X1295528Y42920D01*
X1295565Y42837D01*
X1299883Y38519D01*
X1299886Y38518D01*
X1299887Y38515D01*
X1299972Y38482D01*
X1300428Y38482D01*
X1301153Y37757D01*
X1301156Y37756D01*
X1301157Y37753D01*
X1301242Y37720D01*
X1303730Y37720D01*
X1304709Y36741D01*
X1304712Y36740D01*
X1304713Y36737D01*
X1304798Y36704D01*
X1310386Y36704D01*
X1310389Y36705D01*
G37*
G36*
X1480315Y37975D02*
X1480315Y37975D01*
X1480318Y37974D01*
X1480401Y38011D01*
X1487259Y44869D01*
X1487261Y44872D01*
X1487263Y44873D01*
X1487296Y44958D01*
X1487296Y713994D01*
X1487295Y713997D01*
X1487296Y714000D01*
X1487259Y714083D01*
X1378637Y822706D01*
X1512659Y956729D01*
X1512660Y956731D01*
X1512662Y956732D01*
X1512679Y956776D01*
X1512696Y956820D01*
X1512695Y956822D01*
X1512696Y956824D01*
X1512659Y956907D01*
X1503769Y965797D01*
X1503766Y965799D01*
X1503765Y965801D01*
X1503680Y965834D01*
X1495552Y965834D01*
X1495549Y965833D01*
X1495546Y965834D01*
X1495463Y965797D01*
X1495246Y965580D01*
X1494842Y965580D01*
X1494625Y965797D01*
X1494622Y965799D01*
X1494621Y965801D01*
X1494536Y965834D01*
X1481455Y965834D01*
X1481452Y965833D01*
X1481449Y965834D01*
X1481366Y965797D01*
X1361007Y845438D01*
X1320292Y845438D01*
X1320289Y845437D01*
X1320286Y845438D01*
X1320203Y845401D01*
X1316139Y841337D01*
X1316138Y841334D01*
X1316135Y841333D01*
X1316102Y841248D01*
X1316102Y822452D01*
X1316103Y822449D01*
X1316102Y822446D01*
X1316139Y822363D01*
X1320965Y817537D01*
X1320968Y817536D01*
X1320969Y817533D01*
X1321054Y817500D01*
X1341703Y817500D01*
X1458850Y700353D01*
X1458850Y46482D01*
X1458851Y46479D01*
X1458850Y46476D01*
X1458887Y46393D01*
X1467269Y38011D01*
X1467272Y38010D01*
X1467273Y38007D01*
X1467358Y37974D01*
X1480312Y37974D01*
X1480315Y37975D01*
G37*
G36*
X1017781Y811913D02*
X1017781Y811913D01*
X1017784Y811912D01*
X1017867Y811949D01*
X1020624Y814706D01*
X1021334Y814706D01*
X1021337Y814707D01*
X1021340Y814706D01*
X1021423Y814743D01*
X1024725Y818045D01*
X1024727Y818048D01*
X1024729Y818049D01*
X1024762Y818134D01*
X1024762Y831850D01*
X1024761Y831853D01*
X1024762Y831856D01*
X1024725Y831939D01*
X1016597Y840067D01*
X1016594Y840069D01*
X1016593Y840071D01*
X1016508Y840104D01*
X950266Y840104D01*
X949885Y840486D01*
X975703Y866305D01*
X975705Y866308D01*
X975707Y866309D01*
X975740Y866394D01*
X975740Y867358D01*
X976719Y868337D01*
X976721Y868340D01*
X976723Y868341D01*
X976756Y868426D01*
X976756Y869390D01*
X977481Y870115D01*
X977483Y870118D01*
X977485Y870119D01*
X977518Y870204D01*
X977518Y871422D01*
X978243Y872147D01*
X978245Y872150D01*
X978247Y872151D01*
X978280Y872236D01*
X978280Y884376D01*
X978968Y885064D01*
X1007872Y885064D01*
X1007875Y885065D01*
X1007878Y885064D01*
X1007961Y885101D01*
X1008178Y885318D01*
X1009650Y885318D01*
X1009653Y885319D01*
X1009656Y885318D01*
X1009739Y885355D01*
X1010210Y885826D01*
X1011428Y885826D01*
X1011431Y885827D01*
X1011434Y885826D01*
X1011517Y885863D01*
X1012242Y886588D01*
X1012952Y886588D01*
X1012955Y886589D01*
X1012958Y886588D01*
X1013041Y886625D01*
X1017867Y891451D01*
X1017869Y891454D01*
X1017871Y891455D01*
X1017904Y891540D01*
X1017904Y893520D01*
X1019899Y895515D01*
X1019901Y895518D01*
X1019903Y895519D01*
X1019936Y895604D01*
X1019936Y957834D01*
X1019935Y957837D01*
X1019936Y957840D01*
X1019899Y957923D01*
X1018666Y959156D01*
X1018666Y961136D01*
X1018665Y961139D01*
X1018666Y961142D01*
X1018629Y961225D01*
X1016634Y963220D01*
X1016634Y963422D01*
X1016633Y963425D01*
X1016634Y963428D01*
X1016597Y963511D01*
X1012279Y967829D01*
X1012276Y967831D01*
X1012275Y967833D01*
X1012190Y967866D01*
X999236Y967866D01*
X999233Y967865D01*
X999230Y967866D01*
X999147Y967829D01*
X992289Y960971D01*
X992288Y960968D01*
X992285Y960967D01*
X992252Y960882D01*
X992252Y957378D01*
X991273Y956399D01*
X991272Y956396D01*
X991269Y956395D01*
X991236Y956310D01*
X991236Y914706D01*
X990548Y914018D01*
X960120Y914018D01*
X960117Y914017D01*
X960114Y914018D01*
X960031Y913981D01*
X958798Y912748D01*
X957072Y912748D01*
X957069Y912747D01*
X957066Y912748D01*
X956983Y912711D01*
X953972Y909700D01*
X953262Y909700D01*
X953259Y909699D01*
X953256Y909700D01*
X953173Y909663D01*
X951395Y907885D01*
X951394Y907882D01*
X951391Y907881D01*
X951358Y907796D01*
X951358Y906070D01*
X950379Y905091D01*
X950378Y905088D01*
X950375Y905087D01*
X950342Y905002D01*
X950342Y903784D01*
X949363Y902805D01*
X949362Y902802D01*
X949359Y902801D01*
X949326Y902716D01*
X949326Y883412D01*
X949327Y883409D01*
X949326Y883406D01*
X949363Y883323D01*
X949527Y883158D01*
X949109Y882739D01*
X949108Y882736D01*
X949105Y882735D01*
X949072Y882650D01*
X949072Y880924D01*
X907998Y839850D01*
X590348Y839850D01*
X558164Y872034D01*
X558164Y902716D01*
X558163Y902719D01*
X558164Y902722D01*
X558127Y902805D01*
X556640Y904292D01*
X556640Y906780D01*
X556639Y906783D01*
X556640Y906786D01*
X556603Y906869D01*
X551523Y911949D01*
X551520Y911951D01*
X551519Y911953D01*
X551434Y911986D01*
X536194Y911986D01*
X536191Y911985D01*
X536188Y911986D01*
X536105Y911949D01*
X530263Y906107D01*
X530262Y906104D01*
X530259Y906103D01*
X530226Y906018D01*
X530226Y860247D01*
X530227Y860244D01*
X530226Y860241D01*
X530263Y860158D01*
X578472Y811949D01*
X578475Y811948D01*
X578476Y811945D01*
X578561Y811912D01*
X1017778Y811912D01*
X1017781Y811913D01*
G37*
G36*
X394973Y748159D02*
X394973Y748159D01*
X394976Y748158D01*
X395059Y748195D01*
X402171Y755307D01*
X402173Y755310D01*
X402175Y755311D01*
X402208Y755396D01*
X402208Y768858D01*
X402207Y768861D01*
X402208Y768864D01*
X402171Y768947D01*
X395313Y775805D01*
X395310Y775807D01*
X395309Y775809D01*
X395224Y775842D01*
X314706Y775842D01*
X314703Y775841D01*
X314700Y775842D01*
X314617Y775805D01*
X308013Y769201D01*
X308012Y769198D01*
X308009Y769197D01*
X307976Y769112D01*
X307976Y754634D01*
X307977Y754631D01*
X307976Y754628D01*
X308013Y754545D01*
X314363Y748195D01*
X314366Y748194D01*
X314367Y748191D01*
X314452Y748158D01*
X394970Y748158D01*
X394973Y748159D01*
G37*
G36*
X1283973Y817501D02*
X1283973Y817501D01*
X1283976Y817500D01*
X1284059Y817537D01*
X1284821Y818299D01*
X1284823Y818302D01*
X1284825Y818303D01*
X1284858Y818388D01*
X1284858Y842264D01*
X1284857Y842267D01*
X1284858Y842270D01*
X1284821Y842353D01*
X1280503Y846671D01*
X1280500Y846673D01*
X1280499Y846675D01*
X1280414Y846708D01*
X1226058Y846708D01*
X1226055Y846707D01*
X1226052Y846708D01*
X1225969Y846671D01*
X1212253Y832955D01*
X1212252Y832952D01*
X1212249Y832951D01*
X1212216Y832866D01*
X1212216Y820928D01*
X1212217Y820925D01*
X1212216Y820922D01*
X1212253Y820839D01*
X1215555Y817537D01*
X1215558Y817536D01*
X1215559Y817533D01*
X1215644Y817500D01*
X1283970Y817500D01*
X1283973Y817501D01*
G37*
G36*
X1121413Y670943D02*
X1121413Y670943D01*
X1121416Y670942D01*
X1121499Y670979D01*
X1126833Y676313D01*
X1126835Y676316D01*
X1126837Y676317D01*
X1126870Y676402D01*
X1126870Y694944D01*
X1126869Y694947D01*
X1126870Y694950D01*
X1126833Y695033D01*
X1121245Y700621D01*
X1121242Y700623D01*
X1121241Y700625D01*
X1121156Y700658D01*
X1068832Y700658D01*
X1068829Y700657D01*
X1068826Y700658D01*
X1068743Y700621D01*
X1061885Y693763D01*
X1061884Y693760D01*
X1061881Y693759D01*
X1061848Y693674D01*
X1061848Y676656D01*
X1061849Y676653D01*
X1061848Y676650D01*
X1061885Y676567D01*
X1067473Y670979D01*
X1067476Y670978D01*
X1067477Y670975D01*
X1067562Y670942D01*
X1121410Y670942D01*
X1121413Y670943D01*
G37*
D10*
X1005700Y899600D03*
X963700Y899600D03*
X921700Y899600D03*
X879700Y899600D03*
X837700Y899600D03*
X795700Y899600D03*
X753700Y899600D03*
X711700Y899600D03*
X669700Y899600D03*
X627700Y899600D03*
X585700Y899600D03*
X1005700Y954600D03*
X963700Y954600D03*
X921700Y954600D03*
X879700Y954600D03*
X837700Y954600D03*
X795700Y954600D03*
X753700Y954600D03*
X711700Y954600D03*
X669700Y954600D03*
X627700Y954600D03*
X543700Y899600D03*
X585700Y954600D03*
X543700Y954600D03*
D11*
X1052700Y950000D03*
X496700Y950000D03*
D12*
X91821Y318897D02*
X76581Y318897D01*
X76581Y293497D02*
X91821Y293497D01*
X91821Y268097D02*
X76581Y268097D01*
X396113Y229616D02*
X411353Y229616D01*
X411353Y255016D02*
X396113Y255016D01*
X396113Y280416D02*
X411353Y280416D01*
D13*
X196832Y353428D02*
X196832Y367508D01*
X162832Y367508D02*
X162832Y353428D01*
X213832Y392428D02*
X213832Y406508D01*
X179832Y406508D02*
X179832Y392428D01*
X145832Y392428D02*
X145832Y406508D01*
X516237Y371191D02*
X516237Y357111D01*
X482237Y357111D02*
X482237Y371191D01*
X533237Y396111D02*
X533237Y410191D01*
X499237Y410191D02*
X499237Y396111D01*
X465237Y396111D02*
X465237Y410191D01*
X879330Y357729D02*
X879330Y343649D01*
X845330Y343649D02*
X845330Y357729D01*
X896330Y382649D02*
X896330Y396729D01*
X862330Y396729D02*
X862330Y382649D01*
X828330Y382649D02*
X828330Y396729D01*
D12*
X571754Y57531D02*
X571754Y42291D01*
X546354Y42291D02*
X546354Y57531D01*
X251587Y52451D02*
X251587Y37211D01*
X226187Y37211D02*
X226187Y52451D01*
X988314Y45593D02*
X988314Y60833D01*
X962914Y60833D02*
X962914Y45593D01*
D14*
X345694Y380873D02*
X320294Y380873D01*
X320294Y172593D02*
X345694Y172593D01*
X345694Y223393D02*
X320294Y223393D01*
X320294Y330073D02*
X345694Y330073D01*
X49149Y188214D02*
X23749Y188214D01*
X23749Y396494D02*
X49149Y396494D01*
X49149Y345694D02*
X23749Y345694D01*
X23749Y239014D02*
X49149Y239014D01*
X675386Y156591D02*
X700786Y156591D01*
X700786Y364871D02*
X675386Y364871D01*
X675386Y314071D02*
X700786Y314071D01*
X700786Y207391D02*
X675386Y207391D01*
D15*
X747014Y255270D02*
X760222Y255270D01*
X760222Y306070D02*
X747014Y306070D01*
X747014Y280670D02*
X760222Y280670D01*
D16*
X521335Y90293D03*
X521335Y61853D03*
X200025Y81784D03*
X200025Y53344D03*
D12*
X988187Y96393D02*
X988187Y111633D01*
X962787Y111633D02*
X962787Y96393D01*
X253111Y96393D02*
X253111Y111633D01*
X227711Y111633D02*
X227711Y96393D01*
X571119Y93472D02*
X571119Y108712D01*
X545719Y108712D02*
X545719Y93472D01*
X1574292Y197866D02*
X1574292Y213106D01*
X1548892Y213106D02*
X1548892Y197866D01*
X1435100Y195580D02*
X1435100Y210820D01*
X1409700Y210820D02*
X1409700Y195580D01*
D14*
X861060Y673100D02*
X861060Y698500D01*
X1069340Y698500D02*
X1069340Y673100D01*
X1018540Y673100D02*
X1018540Y698500D01*
X911860Y698500D02*
X911860Y673100D01*
X1013460Y812800D02*
X1013460Y838200D01*
X1221740Y838200D02*
X1221740Y812800D01*
X1170940Y812800D02*
X1170940Y838200D01*
X1064260Y838200D02*
X1064260Y812800D01*
X599440Y774700D02*
X599440Y749300D01*
X391160Y749300D02*
X391160Y774700D01*
X441960Y774700D02*
X441960Y749300D01*
X548640Y749300D02*
X548640Y774700D01*
D17*
X838200Y63500D03*
X889000Y63500D03*
X106680Y60706D03*
X157480Y60706D03*
X419100Y63500D03*
X469900Y63500D03*
X1473200Y50800D03*
X1524000Y50800D03*
X1549400Y952500D03*
X1498600Y952500D03*
X1308100Y50800D03*
X1358900Y50800D03*
X1384300Y952500D03*
X1333500Y952500D03*
D12*
X1574800Y147320D02*
X1574800Y132080D01*
X1549400Y132080D02*
X1549400Y147320D01*
D18*
X1497080Y139700D03*
X1525520Y139700D03*
D12*
X1435100Y147320D02*
X1435100Y132080D01*
X1409700Y132080D02*
X1409700Y147320D01*
D18*
X1344680Y139700D03*
X1373120Y139700D03*
D17*
X1143000Y50800D03*
X1193800Y50800D03*
X127000Y952500D03*
X76200Y952500D03*
D12*
X1257300Y147320D02*
X1257300Y132080D01*
X1231900Y132080D02*
X1231900Y147320D01*
X1257300Y195580D02*
X1257300Y210820D01*
X1231900Y210820D02*
X1231900Y195580D01*
D18*
X1179580Y139700D03*
X1208020Y139700D03*
D19*
X655066Y559816D03*
D20*
X655066Y509016D03*
D19*
X327279Y459740D03*
D21*
X378079Y459740D03*
D18*
X496574Y336296D03*
X525014Y336296D03*
D22*
X543560Y539941D02*
X543560Y557848D01*
X467360Y557848D02*
X467360Y539941D01*
D23*
X571056Y444119D02*
X593535Y444119D01*
X441135Y444119D02*
X418656Y444119D01*
D16*
X647700Y763520D03*
X647700Y735080D03*
D12*
X673100Y728980D02*
X673100Y744220D01*
X698500Y744220D02*
X698500Y728980D01*
D18*
X479802Y902970D03*
X451362Y902970D03*
D12*
X433324Y878078D02*
X433324Y862838D01*
X458724Y862838D02*
X458724Y878078D01*
D19*
X426466Y557530D03*
D24*
X375666Y557530D03*
D22*
X216472Y483870D02*
X198565Y483870D01*
X198565Y560070D02*
X216472Y560070D01*
D23*
X248857Y445389D02*
X271336Y445389D01*
X118936Y445389D02*
X96457Y445389D01*
D18*
X162437Y331470D03*
X190877Y331470D03*
D19*
X23241Y516509D03*
D21*
X74041Y516509D03*
D17*
X342900Y952500D03*
X292100Y952500D03*
D22*
X808038Y477266D02*
X825945Y477266D01*
X825945Y553466D02*
X808038Y553466D01*
D23*
X926656Y433578D02*
X949135Y433578D01*
X796735Y433578D02*
X774256Y433578D01*
D18*
X857508Y324104D03*
X885948Y324104D03*
D19*
X127762Y606298D03*
D24*
X76962Y606298D03*
D19*
X665861Y435864D03*
D21*
X716661Y435864D03*
D12*
X673100Y767080D02*
X673100Y782320D01*
X698500Y782320D02*
X698500Y767080D01*
X980694Y757428D02*
X980694Y742188D01*
X955294Y742188D02*
X955294Y757428D01*
D17*
X1207008Y948436D03*
X1156208Y948436D03*
D25*
X26822Y120227D03*
X36322Y120227D03*
X45822Y120227D03*
X45822Y99737D03*
X26822Y99737D03*
D26*
X302853Y822300D03*
X302853Y812800D03*
X302853Y803300D03*
X282363Y803300D03*
X282363Y822300D03*
X1290235Y765200D03*
X1290235Y774700D03*
X1290235Y784200D03*
X1310725Y784200D03*
X1310725Y765200D03*
X1130215Y633120D03*
X1130215Y642620D03*
X1130215Y652120D03*
X1150705Y652120D03*
X1150705Y633120D03*
D27*
X76708Y132692D03*
X76708Y82192D03*
D28*
X1275738Y831850D03*
X1326238Y831850D03*
X317350Y762000D03*
X266850Y762000D03*
X1117750Y685800D03*
X1168250Y685800D03*
D29*
X32893Y73436D03*
X32893Y45436D03*
D30*
X275433Y848233D03*
X303433Y848233D03*
D29*
X379603Y69245D03*
X379603Y41245D03*
D30*
X1173450Y620014D03*
X1201450Y620014D03*
D29*
X1337310Y756128D03*
X1337310Y784128D03*
D16*
X45339Y476119D03*
X45339Y447679D03*
D18*
X48518Y424815D03*
X76958Y424815D03*
D16*
X370459Y344547D03*
X370459Y316107D03*
X370713Y275205D03*
X370713Y246765D03*
D31*
X1011555Y382651D03*
X986155Y382651D03*
D12*
X1240536Y508381D02*
X1255776Y508381D01*
X1255776Y482981D02*
X1240536Y482981D01*
X1240536Y457581D02*
X1255776Y457581D01*
X1099312Y549021D02*
X1099312Y564261D01*
X1073912Y564261D02*
X1073912Y549021D01*
X1048512Y549021D02*
X1048512Y564261D01*
D32*
X1149394Y315170D03*
X1115270Y349294D03*
D33*
X1299972Y448564D03*
D34*
X1299972Y397764D03*
D12*
X1239774Y529590D02*
X1239774Y544830D01*
X1214374Y544830D02*
X1214374Y529590D01*
X1188974Y529590D02*
X1188974Y544830D01*
X1163574Y544830D02*
X1163574Y529590D01*
D18*
X1109976Y629158D03*
X1081536Y629158D03*
X1239016Y781558D03*
X1267456Y781558D03*
X326394Y829056D03*
X354834Y829056D03*
D16*
X19177Y136275D03*
X19177Y164715D03*
D35*
X1242060Y340868D03*
X1267460Y340868D03*
X1242060Y315468D03*
X1267460Y315468D03*
X1242060Y290068D03*
X1267460Y290068D03*
D30*
X1186404Y574040D03*
X1214404Y574040D03*
D12*
X1011555Y562991D02*
X1011555Y547751D01*
X986155Y547751D02*
X986155Y562991D01*
D36*
X131699Y280797D03*
X233699Y280797D03*
X451231Y285115D03*
X553231Y285115D03*
X813689Y271907D03*
X915689Y271907D03*
D30*
X706658Y390652D03*
X678658Y390652D03*
X706658Y412623D03*
X678658Y412623D03*
X178786Y430276D03*
X206786Y430276D03*
X154529Y456565D03*
X182529Y456565D03*
X855061Y445897D03*
X883061Y445897D03*
X856712Y422656D03*
X884712Y422656D03*
X360329Y426593D03*
X332329Y426593D03*
X360583Y404241D03*
X332583Y404241D03*
X501366Y466217D03*
X529366Y466217D03*
X501747Y438785D03*
X529747Y438785D03*
D16*
X299212Y647061D03*
X299212Y618621D03*
X299085Y594737D03*
X299085Y566297D03*
D29*
X231902Y614142D03*
X231902Y642142D03*
D12*
X1030859Y524129D02*
X1046099Y524129D01*
X1046099Y498729D02*
X1030859Y498729D01*
X1030859Y473329D02*
X1046099Y473329D01*
D35*
X1337564Y717042D03*
X1362964Y717042D03*
X1337564Y691642D03*
X1362964Y691642D03*
X1337564Y666242D03*
X1362964Y666242D03*
X1449324Y816864D03*
X1474724Y816864D03*
X1449324Y791464D03*
X1474724Y791464D03*
X1449324Y766064D03*
X1474724Y766064D03*
D33*
X1436116Y860806D03*
D37*
X1486916Y860806D03*
D30*
X1476024Y840740D03*
X1448024Y840740D03*
D33*
X1325880Y623062D03*
D37*
X1376680Y623062D03*
D30*
X1364391Y645795D03*
X1336391Y645795D03*
D38*
X261620Y613664D03*
X280670Y626364D03*
X261620Y639064D03*
D12*
X40767Y821817D02*
X25527Y821817D01*
X25527Y847217D02*
X40767Y847217D01*
X40767Y872617D02*
X25527Y872617D01*
D39*
X66421Y765556D03*
D40*
X91821Y765556D03*
D12*
X40513Y644906D02*
X25273Y644906D01*
X25273Y670306D02*
X40513Y670306D01*
X40513Y695706D02*
X25273Y695706D01*
D39*
X65659Y729615D03*
D40*
X91059Y729615D03*
D15*
X214549Y677372D02*
X223888Y668033D01*
X170007Y721914D02*
X160668Y731253D01*
X199309Y632287D02*
X208648Y622948D01*
X154767Y676829D02*
X145428Y686168D01*
D11*
X762000Y863600D03*
D41*
X736600Y736600D03*
D42*
X734060Y83820D03*
X617728Y552450D03*
X1181608Y435610D03*
X1179830Y450088D03*
X1162812Y414274D03*
X1136650Y618236D03*
X1065530Y18796D03*
X653796Y855980D03*
D43*
X381508Y824230D03*
D42*
X385826Y649478D03*
X1301496Y502666D03*
X1273429Y609092D03*
X1186434Y773557D03*
X1248918Y805180D03*
X1171956Y646684D03*
X1094486Y657860D03*
X1419352Y727964D03*
X1227074Y614426D03*
X1259332Y374396D03*
X1093978Y375666D03*
D44*
X605155Y666623D03*
D45*
X211455Y457200D03*
D44*
X735457Y669290D03*
D45*
X622808Y728726D03*
X307467Y409829D03*
X271145Y497205D03*
X1058164Y104902D03*
X704850Y549783D03*
X456946Y650367D03*
X778256Y111125D03*
D42*
X170688Y583913D03*
X1057402Y456819D03*
X1003300Y520827D03*
X1085342Y281051D03*
X1131189Y331343D03*
X1159383Y277622D03*
X1176274Y373380D03*
X72136Y668909D03*
X1421638Y827659D03*
D43*
X475996Y336042D03*
D44*
X497205Y126873D03*
X440817Y126492D03*
D11*
X561340Y665480D03*
X496062Y748030D03*
D45*
X863219Y87249D03*
D42*
X1174750Y459740D03*
X1188720Y442722D03*
X1170686Y406654D03*
X1365758Y441452D03*
X693928Y644652D03*
X519938Y36703D03*
X495300Y40767D03*
X1102868Y609854D03*
X381229Y85995D03*
X22098Y28194D03*
X1118108Y609473D03*
X264414Y831850D03*
X1162558Y430276D03*
X1264920Y764726D03*
X1252093Y613664D03*
X1201674Y379730D03*
X244475Y796417D03*
X244475Y751459D03*
X324358Y645160D03*
X1001903Y21717D03*
X1083691Y141732D03*
X1180465Y238633D03*
X1179957Y298704D03*
X1067689Y152146D03*
X1100709Y407416D03*
X1116076Y376682D03*
D45*
X112268Y494792D03*
D42*
X1094994Y393954D03*
X1083691Y404749D03*
D45*
X320929Y302387D03*
D42*
X1149858Y427609D03*
X1218692Y380365D03*
X1168118Y469208D03*
X1114577Y513685D03*
X1120648Y500507D03*
X1122680Y392938D03*
X1134872Y393700D03*
X1203960Y505714D03*
X1203706Y491744D03*
X1204468Y517144D03*
X1178433Y507111D03*
X382524Y612112D03*
X1226947Y327660D03*
X1187704Y291592D03*
X1130653Y483994D03*
X1137031Y490601D03*
X1130782Y498882D03*
X319786Y584581D03*
X345821Y574040D03*
X1298448Y278638D03*
X1126744Y222377D03*
X326009Y596265D03*
X369316Y582930D03*
X1300607Y291465D03*
X1141603Y231140D03*
M02*
