M48
;GenerationSoftware,Autodesk,EAGLE,9.6.2*%
;CreationDate,2020-10-16T12:22:45Z*%
FMAT,2
ICI,OFF
METRIC,TZ,000.000
T16C0.350
T15C0.381
T14C0.500
T13C0.508
T12C0.813
T11C0.900
T10C1.000
T9C1.016
T8C1.100
T7C1.194
T6C1.321
T5C1.400
T4C1.499
T3C1.500
T2C2.300
T1C3.000
%
G90
M71
T1
X105270Y95000
X49670Y95000
T2
X91569Y27191
X81369Y27191
X55323Y28511
X45123Y28511
X13170Y28080
X23370Y28080
T3
X15748Y6071
X46990Y6350
X41910Y6350
X7620Y95250
X29210Y95250
X12700Y95250
X119380Y5080
X114300Y5080
X133350Y95250
X138430Y95250
X135890Y5080
X130810Y5080
X149860Y95250
X152400Y5080
X154940Y95250
X147320Y5080
X10668Y6071
X88900Y6350
X83820Y6350
X115621Y94844
X120701Y94844
X34290Y95250
T4
X93789Y43358
X58229Y44412
X26010Y44539
X42990Y44412
X78550Y43358
X10770Y44539
T5
X62770Y95460
X54370Y89960
X58570Y95460
X54370Y95460
X79570Y95460
X100570Y89960
X96370Y89960
X92170Y89960
X87970Y89960
X83770Y89960
X79570Y89960
X75370Y89960
X71170Y89960
X66970Y89960
X62770Y89960
X58570Y89960
X100570Y95460
X96370Y95460
X92170Y95460
X87970Y95460
X83770Y95460
X75370Y95460
X71170Y95460
X66970Y95460
T6
X101854Y68580
X86106Y68580
X3645Y18821
X44196Y76200
X106934Y68580
X91186Y68580
X3645Y34569
X33299Y33007
X54864Y76200
X33299Y38087
X3645Y23901
X3645Y39649
X101346Y82550
X33299Y22339
X33299Y17259
X122174Y82550
X117094Y82550
X68809Y15659
X68809Y36487
X68809Y31407
X68809Y20739
X106426Y82550
X59944Y76200
X39116Y76200
T7
X20752Y48387
X81699Y55347
X81699Y47727
X46736Y54889
X20752Y56007
X54356Y54889
T8
X6642Y76556
X9182Y76556
X6566Y72962
X9106Y72962
T9
X126746Y29007
X124206Y29007
X126746Y31547
X124206Y31547
X126746Y34087
X124206Y34087
X116357Y53721
X118897Y53721
X121437Y53721
X123977Y53721
X104851Y55664
X107391Y55664
X109931Y55664
X124816Y45758
X124816Y48298
X124816Y50838
X133756Y71704
X40373Y28042
X95529Y74981
X98069Y74981
X69850Y77470
X67310Y77470
X71666Y43586
X66586Y43586
X7696Y60630
X12776Y60630
X32728Y45974
X7404Y51651
X2324Y51651
X37567Y55753
X42647Y55753
X45872Y87046
X43332Y87046
X69850Y73660
X67310Y73660
X37808Y45974
X98615Y55537
X65507Y50902
X65507Y55982
X123190Y20320
X125730Y20320
X123190Y13970
X125730Y13970
X140970Y13970
X143510Y13970
X154940Y13970
X157480Y13970
X54635Y4991
X25159Y4483
X22619Y4483
X98831Y5321
X96291Y5321
X144932Y79146
X147472Y81686
X144932Y81686
X136296Y66624
X133756Y66624
X136296Y69164
X133756Y69164
X98819Y10401
X96279Y10401
X25311Y10401
X22771Y10401
X57112Y10109
X54572Y10109
X157429Y20549
X154889Y20549
X143510Y20320
X140970Y20320
X136296Y71704
X103848Y47333
X57175Y4991
X103848Y49873
X103848Y52413
X8420Y31890
X8420Y29350
X147472Y79146
X144932Y76606
X147472Y76606
X3315Y82182
X3315Y84722
X3315Y87262
X8420Y26810
X40373Y22962
X3289Y64491
X3289Y67031
X3289Y69571
X40373Y25502
X101155Y55537
T10
X47600Y33604
X38151Y82423
T11
X87933Y35069
X49924Y40315
X84533Y35069
X89633Y38969
X86233Y38969
X53324Y40315
X48224Y36415
X51624Y36415
X17983Y39947
X21383Y39947
X16283Y36047
X19683Y36047
X82833Y38969
X14583Y39947
X46524Y40315
T12
X148692Y86081
X132588Y62306
X137668Y62306
X26162Y61366
X28067Y62636
X26162Y63906
X98615Y38265
X101155Y38265
X114939Y31517
X111527Y34929
X129997Y44856
X129997Y39776
X75362Y25527
X75362Y30607
X75362Y28067
X143612Y86081
X21922Y67270
X16534Y72658
X20398Y62762
X15010Y68150
T13
X49606Y74803
X56134Y66548
X44082Y12649
X49720Y12687
X73546Y66929
X60515Y66662
T14
X73660Y73660
T15
X86322Y8725
X77826Y11112
X45695Y65037
X70485Y54978
X105816Y10490
X27114Y49720
X30747Y40983
X62281Y72873
X21146Y45720
X32093Y30239
X11227Y49479
T16
X108369Y14173
X100190Y2172
X32436Y64516
X24447Y75146
X24447Y79642
X120167Y37973
X125209Y61366
X126492Y76473
X116256Y43028
X26441Y83185
X111811Y60947
X2210Y2819
X38123Y8599
X110287Y60985
X49530Y4077
X51994Y3670
X69393Y64465
X136576Y44145
X117069Y40665
X118872Y44272
X117475Y45974
X7214Y66891
X117627Y37338
X115938Y27762
X114160Y23114
X113119Y33134
X108534Y28105
X100330Y52083
X130061Y29146
X32601Y59626
X112674Y22238
X129845Y27864
X105740Y45682
X110071Y40742
X106769Y15215
X109398Y37567
X125933Y37440
X122707Y61443
X141935Y72796
X109449Y65786
X117196Y64668
X142164Y82766
X124892Y80518
X118643Y77356
X127343Y60909
X130150Y50267
X38583Y64948
X65380Y85598
X106553Y1880
X17069Y58391
X113665Y61824
X116281Y41427
X117983Y45009
X118161Y43561
X61773Y55245
X73406Y8382
X36932Y58293
X76200Y86360
X34582Y57404
X31979Y58458
X113078Y49888
X113703Y49060
X113065Y48399
X118770Y29159
X122695Y32766
X38252Y61211
X117843Y50711
X120447Y51714
X120371Y49174
X120396Y50571
X113487Y39370
X112268Y39294
X112065Y50051
X111458Y51368
X116812Y46921
X121869Y38037
X114986Y42761
X117996Y29870
X108369Y40475
X109499Y39395
X118046Y23863
X111608Y37668
M30